<svg width="70" height="70" viewBox="0 0 70 70" fill="none" xmlns="http://www.w3.org/2000/svg">
<path d="M35.0066 45.4329C38.3116 45.4329 41.1187 44.2762 43.4277 41.9628C45.7367 39.6494 46.8913 36.8402 46.8913 33.5351C46.8913 30.23 45.7346 27.423 43.4211 25.114C41.1077 22.8049 38.2985 21.6504 34.9934 21.6504C31.6884 21.6504 28.8813 22.8071 26.5723 25.1205C24.2633 27.4339 23.1087 30.2432 23.1087 33.5482C23.1087 36.8533 24.2655 39.6603 26.5789 41.9694C28.8923 44.2784 31.7015 45.4329 35.0066 45.4329ZM35 41.4167C32.8125 41.4167 30.9531 40.651 29.4219 39.1198C27.8906 37.5885 27.125 35.7292 27.125 33.5417C27.125 31.3542 27.8906 29.4948 29.4219 27.9635C30.9531 26.4323 32.8125 25.6667 35 25.6667C37.1875 25.6667 39.0469 26.4323 40.5781 27.9635C42.1094 29.4948 42.875 31.3542 42.875 33.5417C42.875 35.7292 42.1094 37.5885 40.5781 39.1198C39.0469 40.651 37.1875 41.4167 35 41.4167ZM35.0036 53.9583C28.2968 53.9583 22.1856 52.1082 16.6702 48.4079C11.1548 44.7081 7.09382 39.7527 4.48729 33.5417C7.09382 27.3306 11.1533 22.3752 16.6658 18.6754C22.1788 14.9751 28.289 13.125 34.9964 13.125C41.7032 13.125 47.8144 14.9751 53.3298 18.6754C58.8452 22.3752 62.9062 27.3306 65.5127 33.5417C62.9062 39.7527 58.8467 44.7081 53.3342 48.4079C47.8212 52.1082 41.711 53.9583 35.0036 53.9583ZM35 49.5833C40.4931 49.5833 45.5365 48.1371 50.1302 45.2448C54.724 42.3524 58.2361 38.4514 60.6667 33.5417C58.2361 28.6319 54.724 24.7309 50.1302 21.8385C45.5365 18.9462 40.4931 17.5 35 17.5C29.5069 17.5 24.4635 18.9462 19.8698 21.8385C15.276 24.7309 11.7639 28.6319 9.33333 33.5417C11.7639 38.4514 15.276 42.3524 19.8698 45.2448C24.4635 48.1371 29.5069 49.5833 35 49.5833Z" fill="#9F35EC"/>
</svg>
