<svg width="459" height="434" viewBox="0 0 459 434" fill="none" xmlns="http://www.w3.org/2000/svg">
<path d="M246.91 1.50061C246.081 1.48591 245.398 2.14556 245.383 2.97398C245.383 2.97494 245.383 2.97589 245.383 2.97684C239.222 2.891 233.059 2.95134 226.917 3.19376C226.917 3.19254 226.917 3.19132 226.917 3.19009C226.88 2.36235 226.179 1.72111 225.351 1.75782C218.141 2.07765 210.958 2.6517 203.841 3.53834C203.018 3.64076 202.435 4.39031 202.537 5.21251C202.538 5.21406 202.538 5.21562 202.538 5.21717C196.411 6.01955 190.338 7.05832 184.345 8.37093C184.345 8.36907 184.344 8.36721 184.344 8.36535C184.16 7.55736 183.357 7.05104 182.549 7.23447C175.5 8.8347 168.558 10.818 161.764 13.2457C160.984 13.5246 160.577 14.3831 160.856 15.1633C160.857 15.1655 160.858 15.1676 160.858 15.1698C155.096 17.2885 149.447 19.7339 143.938 22.5439C143.937 22.5416 143.935 22.5393 143.934 22.5371C143.55 21.8029 142.644 21.5189 141.91 21.9028C138.722 23.5697 135.58 25.3598 132.491 27.2803C129.417 29.1906 126.465 31.2169 123.623 33.3482C122.96 33.8453 122.826 34.7856 123.323 35.4485C123.324 35.4509 123.326 35.4533 123.328 35.4557C118.477 39.1853 113.95 43.2287 109.691 47.5296C109.689 47.5278 109.687 47.5261 109.686 47.5243C109.091 46.9473 108.141 46.9614 107.564 47.556C102.598 52.6727 97.9995 58.1307 93.6765 63.8364C93.1761 64.4968 93.3059 65.4377 93.9663 65.9381C93.9677 65.9392 93.9692 65.9403 93.9706 65.9414C90.3554 70.7845 86.9287 75.8068 83.6348 80.9533C83.6338 80.9527 83.6328 80.9521 83.6319 80.9515C82.9319 80.5081 82.0051 80.7161 81.5617 81.4161C77.7782 87.3893 74.1689 93.5164 70.6502 99.7092C70.2409 100.43 70.4931 101.345 71.2135 101.755C71.214 101.755 71.2144 101.755 71.2149 101.755C68.2287 107.037 65.3003 112.369 62.3771 117.7C61.6506 117.301 60.7387 117.567 60.3403 118.294C58.6372 121.399 56.9361 124.499 55.2252 127.587C53.7665 130.219 52.2502 132.853 50.6909 135.489C50.2696 136.201 50.5048 137.12 51.2161 137.543C48.6266 141.884 45.9315 146.228 43.1968 150.579C42.4958 150.138 41.5699 150.348 41.1285 151.049C40.0405 152.776 38.9456 154.507 37.8489 156.242C35.6826 159.667 33.5089 163.104 31.3657 166.546C30.9277 167.25 31.1429 168.175 31.8463 168.613C31.8467 168.613 31.8471 168.613 31.8475 168.613C29.1463 172.97 26.4965 177.342 23.9631 181.735C23.9621 181.734 23.9611 181.733 23.9601 181.733C23.2405 181.322 22.3243 181.573 21.9135 182.292C18.838 187.681 15.9401 193.112 13.3419 198.594C12.9871 199.343 13.3064 200.237 14.0551 200.592C14.057 200.593 14.0588 200.594 14.0606 200.595C11.8847 205.285 9.93932 210.007 8.30018 214.769C8.2973 214.768 8.29441 214.767 8.29152 214.766C7.50489 214.505 6.65626 214.932 6.39606 215.719C4.4332 221.653 2.94516 227.662 2.08005 233.758C1.96362 234.578 2.53424 235.337 3.35457 235.454C3.35878 235.454 3.36299 235.455 3.36719 235.455C2.73946 240.494 2.55221 245.583 2.88826 250.732C2.8834 250.732 2.87853 250.733 2.87366 250.733C2.04807 250.803 1.43563 251.529 1.50573 252.355C1.76524 255.411 2.20761 258.488 2.84929 261.587C3.493 264.695 4.30378 267.715 5.26832 270.652C5.52683 271.439 6.37454 271.868 7.16173 271.609C7.16608 271.608 7.17042 271.606 7.17474 271.605C8.88456 276.507 11.0326 281.174 13.5534 285.634C13.5499 285.636 13.5465 285.638 13.543 285.64C12.8283 286.06 12.5888 286.979 13.008 287.693C16.1443 293.04 19.8026 298.084 23.8658 302.877C24.4017 303.509 25.3483 303.587 25.9803 303.051C25.9826 303.049 25.9849 303.047 25.9872 303.045C29.3207 306.883 32.921 310.564 36.7278 314.115C36.7264 314.117 36.725 314.119 36.7235 314.12C36.1635 314.731 36.2046 315.68 36.8153 316.24C41.3236 320.374 46.0994 324.329 51.0446 328.148C51.7004 328.654 52.6425 328.533 53.1489 327.877C53.1497 327.876 53.1506 327.875 53.1514 327.874C57.2147 330.978 61.392 333.996 65.6307 336.953C65.6303 336.954 65.6299 336.954 65.6294 336.955C65.1575 337.636 65.327 338.571 66.008 339.043C71.0711 342.551 76.2108 345.974 81.334 349.347C82.026 349.803 82.9564 349.612 83.4121 348.92C83.4122 348.919 83.4123 348.919 83.4124 348.919C85.0188 349.975 86.6236 351.027 88.2242 352.076C90.9361 353.854 93.6357 355.623 96.3097 357.391C95.8526 358.081 96.0415 359.012 96.7319 359.469C99.3093 361.178 101.859 362.884 104.369 364.593C107.38 366.643 110.416 368.621 113.476 370.531C114.179 370.969 115.105 370.755 115.543 370.052C115.544 370.051 115.545 370.05 115.545 370.049C120.861 373.325 126.251 376.395 131.714 379.275C131.714 379.276 131.713 379.277 131.712 379.279C131.33 380.014 131.616 380.919 132.351 381.302C138.797 384.657 145.343 387.75 151.984 390.607C152.745 390.935 153.628 390.583 153.955 389.822C153.956 389.821 153.956 389.82 153.957 389.819C159.667 392.242 165.449 394.493 171.301 396.586C171.301 396.587 171.3 396.588 171.3 396.589C171.024 397.371 171.434 398.227 172.216 398.503C179.019 400.903 185.914 403.093 192.897 405.098C193.694 405.327 194.525 404.867 194.753 404.07C194.754 404.069 194.754 404.068 194.754 404.067C200.698 405.75 206.707 407.299 212.779 408.732C212.779 408.733 212.779 408.733 212.778 408.734C212.591 409.541 213.093 410.348 213.9 410.535C217.41 411.351 220.941 412.128 224.491 412.87C227.553 413.51 230.637 414.199 233.74 414.925C234.546 415.113 235.353 414.613 235.542 413.807C240.687 415.026 245.876 416.333 251.091 417.664C250.886 418.466 251.37 419.283 252.173 419.488C253.041 419.71 253.909 419.933 254.779 420.155C260.042 421.502 265.336 422.857 270.632 424.149C271.437 424.345 272.249 423.852 272.445 423.047C272.446 423.046 272.446 423.046 272.446 423.045C277.661 424.306 282.878 425.499 288.078 426.559C288.078 426.56 288.078 426.561 288.077 426.563C287.916 427.375 288.443 428.165 289.256 428.327C295.58 429.586 301.889 430.644 308.148 431.379C308.971 431.476 309.716 430.887 309.813 430.065C309.813 430.062 309.814 430.061 309.814 430.058C315.195 430.647 320.53 430.987 325.799 431.004C325.799 431.007 325.799 431.01 325.799 431.013C325.806 431.841 326.484 432.507 327.312 432.5C333.807 432.443 340.213 431.887 346.49 430.685C347.304 430.53 347.838 429.744 347.682 428.93C347.681 428.926 347.68 428.922 347.679 428.918C352.884 427.832 357.986 426.287 362.964 424.197C362.966 424.201 362.968 424.206 362.969 424.21C363.305 424.968 364.19 425.311 364.948 424.976C367.862 423.687 370.733 422.211 373.556 420.532C376.375 418.856 379.037 417.041 381.554 415.1C382.211 414.594 382.332 413.652 381.827 412.996C381.824 412.992 381.821 412.989 381.818 412.985C386.023 409.614 389.806 405.876 393.231 401.831C393.234 401.834 393.238 401.836 393.241 401.839C393.882 402.364 394.827 402.27 395.352 401.628C399.394 396.69 402.927 391.332 406.059 385.659C406.46 384.934 406.197 384.021 405.471 383.621C405.469 383.619 405.466 383.618 405.464 383.616C407.95 378.985 410.181 374.141 412.215 369.138C412.217 369.139 412.219 369.14 412.221 369.141C412.991 369.447 413.863 369.07 414.169 368.3C416.491 362.455 418.554 356.413 420.447 350.262C420.69 349.471 420.246 348.631 419.454 348.387C419.453 348.387 419.452 348.387 419.451 348.386C420.984 343.319 422.41 338.174 423.778 332.999C423.778 332.999 423.779 332.999 423.779 332.999C424.581 333.209 425.401 332.73 425.611 331.928C426.935 326.873 428.209 321.793 429.476 316.74C429.746 315.663 430.015 314.587 430.285 313.513C430.487 312.71 429.999 311.895 429.196 311.693C430.507 306.486 431.828 301.314 433.21 296.223C434.008 296.441 434.833 295.972 435.052 295.174C435.895 292.107 436.761 289.075 437.662 286.087C438.464 283.426 439.266 280.761 440.061 278.095C440.298 277.301 439.846 276.465 439.052 276.228C439.052 276.228 439.052 276.228 439.052 276.228C440.352 271.854 441.633 267.476 442.871 263.092C442.872 263.092 442.872 263.092 442.873 263.093C443.671 263.316 444.499 262.851 444.722 262.053C446.23 256.674 447.672 251.285 449.007 245.884C449.206 245.08 448.715 244.267 447.911 244.068C447.91 244.068 447.909 244.068 447.908 244.067C448.99 239.623 449.995 235.174 450.902 230.72C450.903 230.72 450.904 230.72 450.905 230.72C451.718 230.882 452.507 230.353 452.669 229.541C453.761 224.039 454.699 218.524 455.439 212.999C455.549 212.178 454.972 211.423 454.151 211.313C454.15 211.313 454.148 211.313 454.146 211.312C454.724 206.779 455.164 202.24 455.444 197.697C455.446 197.697 455.448 197.697 455.45 197.697C456.277 197.741 456.984 197.106 457.028 196.279C457.328 190.684 457.381 185.078 457.143 179.461C457.108 178.633 456.408 177.991 455.58 178.026C455.578 178.026 455.576 178.026 455.574 178.026C455.339 173.493 454.91 168.956 454.263 164.413C454.266 164.413 454.268 164.413 454.271 164.412C455.09 164.287 455.652 163.521 455.527 162.702C455.105 159.941 454.602 157.178 454.013 154.413C453.415 151.602 452.764 148.8 452.061 146.011C451.859 145.207 451.043 144.72 450.24 144.923C450.238 144.923 450.237 144.924 450.235 144.924C449.053 140.361 447.731 135.833 446.267 131.354C446.269 131.353 446.27 131.352 446.272 131.352C447.058 131.089 447.482 130.239 447.219 129.454C445.395 123.994 443.361 118.606 441.118 113.314C440.794 112.551 439.914 112.195 439.151 112.518C439.149 112.519 439.148 112.519 439.146 112.52C437.274 108.188 435.26 103.923 433.104 99.7376C433.106 99.7368 433.108 99.7359 433.109 99.735C433.843 99.3503 434.126 98.4435 433.741 97.7097C431.065 92.6052 428.176 87.6196 425.075 82.7761C424.629 82.0783 423.701 81.8747 423.003 82.3214C423.002 82.3225 423 82.3235 422.998 82.3246C420.424 78.3718 417.707 74.5174 414.846 70.7743C414.847 70.773 414.849 70.7718 414.851 70.7705C415.505 70.262 415.623 69.3194 415.114 68.6653C411.579 64.1182 407.831 59.7372 403.869 55.5457C403.3 54.9436 402.35 54.9169 401.748 55.486C401.746 55.4875 401.745 55.489 401.743 55.4905C398.481 52.0992 395.077 48.837 391.529 45.7167C391.531 45.715 391.532 45.7133 391.534 45.7116C392.075 45.0846 392.006 44.1372 391.379 43.5956C389.202 41.7152 386.972 39.8873 384.69 38.1147C382.458 36.3815 380.185 34.7307 377.873 33.1583C377.188 32.6923 376.255 32.87 375.789 33.5551C375.787 33.5574 375.786 33.5597 375.784 33.562C371.969 31.0294 368.05 28.7076 364.04 26.5785C364.041 26.5763 364.042 26.574 364.043 26.5717C364.424 25.8359 364.136 24.9306 363.401 24.5497C358.413 21.9674 353.292 19.676 348.063 17.6415C347.291 17.3411 346.421 17.7235 346.121 18.4957C346.12 18.4978 346.119 18.4999 346.118 18.5019C341.868 16.8915 337.545 15.4482 333.163 14.154C333.164 14.1522 333.164 14.1504 333.165 14.1485C333.393 13.3522 332.933 12.5212 332.137 12.2926C326.778 10.7542 321.338 9.43381 315.839 8.29883C315.028 8.13134 314.234 8.65336 314.067 9.46481C314.067 9.46631 314.066 9.46781 314.066 9.46931C309.612 8.57831 305.119 7.80681 300.599 7.13763C300.599 7.1364 300.599 7.13517 300.599 7.13395C300.716 6.31373 300.147 5.55377 299.326 5.43651C293.811 4.64812 288.261 4.00855 282.7 3.48683C281.875 3.40945 281.143 4.01546 281.066 4.84039C281.066 4.84133 281.066 4.84227 281.066 4.84321C276.527 4.43466 271.979 4.10278 267.435 3.83074C267.435 3.83004 267.435 3.82934 267.435 3.82863C267.482 3.00143 266.85 2.2926 266.022 2.24543C263.237 2.0866 260.454 1.94955 257.677 1.83041C254.094 1.67669 250.503 1.56438 246.91 1.50061Z" stroke="#9F35EC" stroke-opacity="0.41" stroke-width="3" stroke-linecap="round" stroke-dasharray="19 19"/>
</svg>
