<svg width="516" height="546" viewBox="0 0 516 546" fill="none" xmlns="http://www.w3.org/2000/svg">
<path d="M388.656 6.33008C387.867 6.07771 387.023 6.51277 386.77 7.30182C386.769 7.30563 386.768 7.30943 386.767 7.31324C381.205 5.63146 375.565 4.48727 369.865 3.80231C369.865 3.79886 369.865 3.7954 369.866 3.79194C369.953 2.96813 369.356 2.22948 368.532 2.14213C361.76 1.42397 354.916 1.33445 348.029 1.74295C347.202 1.79201 346.572 2.50217 346.621 3.32914C346.621 3.33174 346.621 3.33434 346.621 3.33694C340.937 3.73338 335.217 4.46607 329.476 5.4625C329.475 5.46068 329.475 5.45885 329.475 5.45703C329.327 4.64189 328.547 4.10084 327.731 4.24858C321.108 5.44903 314.467 6.98797 307.833 8.75405C307.033 8.96718 306.557 9.78893 306.77 10.5895C306.77 10.5906 306.771 10.5917 306.771 10.5929C301.241 12.0926 295.711 13.7472 290.195 15.4927C290.195 15.492 290.194 15.4914 290.194 15.4908C289.942 14.7016 289.098 14.2662 288.309 14.5182C281.852 16.5801 275.418 18.7578 269.036 20.9469C268.252 21.2157 267.835 22.0688 268.104 22.8524C268.104 22.8526 268.104 22.8527 268.104 22.8528C266.61 23.3662 265.118 23.8799 263.629 24.3927C259.65 25.7632 255.69 27.127 251.755 28.4592C251.49 27.6748 250.639 27.2533 249.855 27.5178C246.631 28.6041 243.427 29.6664 240.244 30.6909C237.541 31.5607 234.867 32.4763 232.22 33.435C231.441 33.7171 231.039 34.5773 231.321 35.3562C231.321 35.3577 231.322 35.3591 231.322 35.3606C226.97 36.9679 222.689 38.6926 218.471 40.5234C218.47 40.5221 218.47 40.5208 218.469 40.5194C218.135 39.7614 217.249 39.4178 216.491 39.752C211.307 42.0374 206.218 44.4805 201.209 47.0597C200.473 47.4389 200.183 48.3434 200.562 49.08C200.563 49.0811 200.564 49.0822 200.564 49.0833C196.469 51.2178 192.425 53.4438 188.423 55.7495C188.423 55.7486 188.422 55.7477 188.422 55.7467C188.005 55.0307 187.087 54.788 186.371 55.2046C181.502 58.0375 176.697 60.9855 171.941 64.027C171.243 64.4733 171.039 65.4008 171.485 66.0988C171.486 66.0995 171.486 66.1002 171.487 66.1008C167.613 68.5959 163.769 71.1531 159.947 73.7609C159.946 73.7604 159.946 73.7599 159.946 73.7594C159.477 73.0762 158.543 72.9022 157.86 73.3708C153.231 76.546 148.633 79.7925 144.052 83.0894C143.38 83.5733 143.227 84.5107 143.711 85.1831C143.711 85.1834 143.712 85.1837 143.712 85.184C139.979 87.8797 136.254 90.6088 132.531 93.3602C132.531 93.3601 132.531 93.3599 132.53 93.3598C132.038 92.6939 131.098 92.5536 130.432 93.0465C128.177 94.7159 125.922 96.3928 123.665 98.0746C121.284 99.8496 118.877 101.607 116.454 103.354C115.782 103.838 115.63 104.774 116.113 105.446C112.08 108.339 108.007 111.201 103.926 114.057C103.451 113.379 102.516 113.213 101.837 113.688C101.372 114.013 100.907 114.338 100.442 114.664C96.0088 117.764 91.5677 120.87 87.1674 124.01C86.4931 124.492 86.3366 125.429 86.8179 126.103C86.8182 126.103 86.8184 126.104 86.8187 126.104C82.7623 129.011 78.7445 131.949 74.7985 134.947C74.7979 134.946 74.7973 134.946 74.7968 134.945C74.2931 134.287 73.3516 134.162 72.6939 134.666C67.9037 138.333 63.2187 142.097 58.7009 146.003C58.0742 146.545 58.0055 147.492 58.5473 148.119C58.5484 148.12 58.5494 148.121 58.5504 148.123C54.7889 151.416 51.1522 154.812 47.676 158.337C47.6745 158.335 47.673 158.334 47.6715 158.332C47.0767 157.756 46.127 157.77 45.5504 158.365C41.3441 162.704 37.3752 167.245 33.7103 172.039C33.2072 172.698 33.3329 173.639 33.9911 174.142C33.9932 174.144 33.9954 174.145 33.9976 174.147C31.0338 178.115 28.2831 182.254 25.7816 186.595C25.7789 186.593 25.7761 186.592 25.7733 186.59C25.0504 186.186 24.1364 186.444 23.7319 187.167C22.2657 189.787 20.8886 192.48 19.6081 195.251C18.2622 198.165 16.9965 201.107 15.8093 204.076C15.5017 204.845 15.876 205.718 16.6452 206.026C16.6471 206.027 16.649 206.027 16.6508 206.028C14.7008 211.023 12.9723 216.091 11.4572 221.221C11.4554 221.22 11.4535 221.22 11.4517 221.219C10.6554 220.991 9.82462 221.451 9.59609 222.247C7.83022 228.4 6.36708 234.636 5.19266 240.931C5.04072 241.745 5.57773 242.529 6.3921 242.681C6.39388 242.681 6.39566 242.681 6.39743 242.682C5.45461 247.946 4.71359 253.25 4.16622 258.583C4.16454 258.582 4.16285 258.582 4.16116 258.582C3.33651 258.503 2.60395 259.108 2.52495 259.932C1.91593 266.289 1.57888 272.681 1.50004 279.084C1.48984 279.913 2.15309 280.593 2.98146 280.603C2.98304 280.603 2.98462 280.603 2.9862 280.603C2.95418 285.95 3.10248 291.305 3.42314 296.654C3.42164 296.655 3.42015 296.655 3.41865 296.655C2.59202 296.709 1.96611 297.424 2.02063 298.25C2.44103 304.624 3.10368 310.987 3.9951 317.315C4.11064 318.136 4.86932 318.707 5.68965 318.591C5.69106 318.591 5.69247 318.591 5.69388 318.591C6.47109 323.89 7.40925 329.165 8.50043 334.402C8.49908 334.402 8.49773 334.402 8.49639 334.403C7.68632 334.576 7.17025 335.373 7.34371 336.183C8.01312 339.31 8.73663 342.421 9.51256 345.516C10.2952 348.638 11.1436 351.735 12.0556 354.807C12.2913 355.602 13.1262 356.054 13.9204 355.819C13.922 355.818 13.9236 355.818 13.9252 355.817C15.4942 360.976 17.244 366.064 19.1646 371.078C19.1631 371.078 19.1616 371.079 19.1601 371.079C18.3884 371.381 18.0071 372.251 18.3085 373.022C20.6466 379.01 23.2265 384.891 26.0309 390.659C26.3932 391.404 27.2908 391.714 28.0358 391.352C28.0372 391.351 28.0386 391.351 28.0399 391.35C30.4214 396.173 32.9611 400.917 35.649 405.579C35.6477 405.579 35.6465 405.58 35.6452 405.581C34.9299 405.999 34.689 406.918 35.1069 407.633C38.3414 413.168 41.7831 418.586 45.415 423.881C45.8835 424.564 46.8172 424.738 47.5004 424.27C47.5015 424.269 47.5026 424.268 47.5038 424.268C50.5672 428.682 53.7639 433.011 57.0839 437.252C57.0828 437.253 57.0818 437.253 57.0808 437.254C56.4312 437.768 56.3213 438.712 56.8354 439.361C60.8096 444.383 64.9553 449.279 69.2558 454.044C69.8108 454.659 70.7593 454.708 71.3743 454.153C71.3752 454.152 71.3761 454.151 71.3771 454.151C74.9975 458.123 78.7264 462.003 82.554 465.789C82.5532 465.79 82.5524 465.791 82.5515 465.792C81.9718 466.383 81.9815 467.333 82.5732 467.913C84.8615 470.155 87.1842 472.363 89.5391 474.538C91.9063 476.723 94.3025 478.906 96.7275 481.078C97.3446 481.631 98.2929 481.578 98.8456 480.961C98.8461 480.961 98.8465 480.96 98.8469 480.96C102.906 484.576 107.043 488.157 111.258 491.666C111.258 491.667 111.257 491.668 111.256 491.668C110.729 492.307 110.818 493.252 111.457 493.78C116.453 497.909 121.559 501.936 126.774 505.799C127.44 506.292 128.38 506.152 128.873 505.486C128.873 505.485 128.874 505.484 128.875 505.483C133.294 508.724 137.789 511.843 142.359 514.802C142.358 514.803 142.357 514.804 142.356 514.805C141.91 515.504 142.114 516.431 142.812 516.877C148.325 520.401 153.95 523.693 159.684 526.688C160.419 527.072 161.325 526.788 161.708 526.053C161.709 526.052 161.71 526.05 161.711 526.048C166.601 528.556 171.568 530.842 176.611 532.868C176.61 532.87 176.609 532.872 176.608 532.874C176.306 533.646 176.687 534.516 177.459 534.818C183.561 537.204 189.778 539.211 196.107 540.768C196.912 540.966 197.724 540.474 197.922 539.669C197.923 539.667 197.924 539.664 197.924 539.661C203.234 540.905 208.619 541.826 214.078 542.382C214.078 542.385 214.077 542.388 214.077 542.391C214.003 543.216 214.612 543.945 215.438 544.019C218.679 544.309 221.947 544.471 225.242 544.497C228.464 544.523 231.621 544.345 234.719 543.982C235.542 543.886 236.131 543.141 236.035 542.318C236.034 542.313 236.034 542.308 236.033 542.303C241.243 541.59 246.288 540.35 251.204 538.692C251.206 538.695 251.207 538.699 251.208 538.703C251.486 539.484 252.343 539.891 253.124 539.614C259.009 537.523 264.701 534.854 270.262 531.794C270.988 531.395 271.253 530.482 270.853 529.757C270.852 529.755 270.851 529.752 270.85 529.75C275.331 527.226 279.74 524.446 284.111 521.507C284.112 521.508 284.113 521.509 284.113 521.51C284.579 522.195 285.512 522.373 286.197 521.907C291.301 518.435 296.352 514.763 301.392 511.05C302.059 510.559 302.202 509.62 301.711 508.953C301.71 508.953 301.71 508.952 301.71 508.952C302.566 508.321 303.422 507.688 304.279 507.055C307.606 504.597 310.941 502.133 314.299 499.706C314.783 500.377 315.719 500.53 316.391 500.047C321.436 496.423 326.524 492.905 331.712 489.635C332.411 489.194 332.622 488.271 332.184 487.571C336.632 484.811 341.161 482.237 345.803 479.938C346.165 480.679 347.058 480.99 347.802 480.632C350.57 479.299 353.376 478.07 356.228 476.962C359.249 475.788 362.365 474.773 365.56 473.892C366.356 473.672 366.824 472.852 366.61 472.056C371.984 470.65 377.553 469.604 383.244 468.799C383.356 469.618 384.109 470.191 384.929 470.082C391.394 469.217 398.017 468.649 404.698 468.2C405.524 468.145 406.149 467.431 406.095 466.605C410.098 466.347 414.112 466.127 418.113 465.908C419.755 465.819 421.396 465.729 423.032 465.637C423.032 465.637 423.032 465.637 423.032 465.637C423.08 466.464 423.789 467.096 424.616 467.049C431.367 466.66 438.068 466.214 444.59 465.525C445.414 465.438 446.011 464.699 445.924 463.876C445.924 463.874 445.924 463.872 445.924 463.871C451.688 463.225 457.295 462.376 462.665 461.192C462.666 461.195 462.667 461.198 462.668 461.202C462.856 462.008 463.663 462.509 464.47 462.32C471.259 460.732 477.693 458.58 483.591 455.584C484.329 455.209 484.624 454.306 484.249 453.568C484.246 453.562 484.243 453.557 484.241 453.552C489.216 450.875 493.76 447.56 497.761 443.43C497.766 443.435 497.771 443.44 497.777 443.445C498.388 444.004 499.337 443.962 499.896 443.35C502.14 440.896 504.205 438.179 506.072 435.168C507.959 432.124 509.492 429.03 510.707 425.891C511.006 425.118 510.622 424.25 509.85 423.951C509.843 423.948 509.836 423.946 509.83 423.943C511.777 418.452 512.744 412.83 512.943 407.1C512.949 407.1 512.954 407.1 512.96 407.1C513.788 407.11 514.468 406.446 514.477 405.618C514.555 398.929 513.639 392.126 512.065 385.253C511.88 384.445 511.076 383.941 510.268 384.126C510.265 384.126 510.262 384.127 510.259 384.128C508.946 378.706 507.228 373.216 505.264 367.675C505.266 367.674 505.267 367.674 505.268 367.673C506.047 367.392 506.451 366.532 506.169 365.753C503.914 359.509 501.367 353.208 498.758 346.888C498.442 346.123 497.565 345.758 496.799 346.074C496.799 346.074 496.799 346.074 496.799 346.075C496.326 344.932 495.851 343.789 495.376 342.644C493.655 338.497 491.928 334.334 490.256 330.162C491.025 329.855 491.4 328.984 491.094 328.215C488.592 321.916 486.239 315.617 484.246 309.329C483.996 308.541 483.156 308.104 482.368 308.351C480.651 302.783 479.223 297.217 478.23 291.668C479.042 291.528 479.59 290.76 479.456 289.946C478.911 286.64 478.529 283.348 478.339 280.071C478.172 277.195 478.118 274.322 478.16 271.45C478.173 270.625 477.516 269.945 476.691 269.928C476.818 265.11 477.205 260.304 477.776 255.509C478.596 255.61 479.344 255.03 479.448 254.21C480.175 248.492 481.156 242.783 482.263 237.075C482.421 236.263 481.891 235.477 481.079 235.318C482.013 230.587 483.024 225.868 484.037 221.158C484.846 221.332 485.644 220.817 485.818 220.007C487.047 214.293 488.271 208.574 489.352 202.866C489.506 202.052 488.971 201.267 488.157 201.113C488.156 201.112 488.155 201.112 488.154 201.112C489.037 196.34 489.811 191.578 490.398 186.824C490.4 186.825 490.402 186.825 490.404 186.825C491.227 186.92 491.971 186.329 492.065 185.506C492.74 179.636 493.121 173.764 493.056 167.893C493.047 167.065 492.368 166.4 491.54 166.41C491.536 166.41 491.533 166.41 491.53 166.41C491.413 161.606 490.986 156.81 490.165 152.021C490.169 152.021 490.173 152.02 490.177 152.019C490.991 151.866 491.526 151.081 491.373 150.267C490.83 147.388 490.144 144.51 489.297 141.634C488.338 138.378 487.338 135.101 486.294 131.814C486.043 131.024 485.2 130.588 484.41 130.838C484.409 130.839 484.409 130.839 484.408 130.839C482.642 125.341 480.751 119.818 478.72 114.318C478.721 114.318 478.722 114.317 478.723 114.317C479.499 114.027 479.893 113.163 479.603 112.387C477.21 105.985 474.624 99.6143 471.822 93.3492C471.484 92.593 470.597 92.2542 469.84 92.5924C469.839 92.5929 469.838 92.5934 469.837 92.594C467.424 87.2728 464.852 82.0344 462.107 76.9239C462.109 76.9231 462.11 76.9224 462.112 76.9216C462.839 76.5249 463.107 75.6138 462.71 74.8865C459.396 68.8093 455.831 62.9138 451.989 57.2776C451.523 56.5931 450.59 56.4164 449.905 56.8829C449.903 56.8841 449.902 56.8852 449.9 56.8864C446.553 52.0605 442.999 47.4366 439.221 43.0644C439.223 43.0627 439.225 43.0611 439.227 43.0594C439.849 42.5115 439.908 41.5637 439.36 40.9423C434.767 35.7324 429.847 30.8838 424.57 26.4841C423.933 25.9536 422.987 26.0394 422.457 26.6757C422.455 26.6781 422.453 26.6805 422.451 26.6828C417.935 23.0111 413.161 19.6735 408.113 16.7233C408.115 16.7203 408.116 16.7173 408.118 16.7143C408.526 15.9933 408.272 15.078 407.551 14.67C404.558 12.9759 401.47 11.4148 398.284 9.99753C395.103 8.58267 391.892 7.36519 388.656 6.33008Z" stroke="#9F35EC" stroke-opacity="0.41" stroke-width="3" stroke-linecap="round" stroke-dasharray="19 19"/>
</svg>
